<?xml version="1.0" encoding="UTF-8" standalone="no"?>
<!DOCTYPE svg PUBLIC "-//W3C//DTD SVG 1.1//EN"
 "http://www.w3.org/Graphics/SVG/1.1/DTD/svg11.dtd">
<!-- Generated by graphviz version 2.40.1 (20161225.0304)
 -->
<!-- Title: pipeline Pages: 1 -->
<svg width="361pt" height="44pt"
 viewBox="0.00 0.00 361.04 44.00" xmlns="http://www.w3.org/2000/svg" xmlns:xlink="http://www.w3.org/1999/xlink">
<g id="graph0" class="graph" transform="scale(1 1) rotate(0) translate(4 40)">
<title>pipeline</title>
<polygon fill="#ffffff" stroke="transparent" points="-4,4 -4,-40 357.0408,-40 357.0408,4 -4,4"/>
<!-- Parse -->
<g id="node1" class="node">
<title>Parse</title>
<path fill="none" stroke="#000000" d="M42,-36C42,-36 12,-36 12,-36 6,-36 0,-30 0,-24 0,-24 0,-12 0,-12 0,-6 6,0 12,0 12,0 42,0 42,0 48,0 54,-6 54,-12 54,-12 54,-24 54,-24 54,-30 48,-36 42,-36"/>
<text text-anchor="middle" x="27" y="-13.8" font-family="Times,serif" font-size="14.00" fill="#000000">Parse</text>
</g>
<!-- Generate -->
<g id="node2" class="node">
<title>Generate</title>
<path fill="none" stroke="#000000" d="M144.276,-36C144.276,-36 102.2402,-36 102.2402,-36 96.2402,-36 90.2402,-30 90.2402,-24 90.2402,-24 90.2402,-12 90.2402,-12 90.2402,-6 96.2402,0 102.2402,0 102.2402,0 144.276,0 144.276,0 150.276,0 156.276,-6 156.276,-12 156.276,-12 156.276,-24 156.276,-24 156.276,-30 150.276,-36 144.276,-36"/>
<text text-anchor="middle" x="123.2581" y="-13.8" font-family="Times,serif" font-size="14.00" fill="#000000">Generate</text>
</g>
<!-- Parse&#45;&gt;Generate -->
<g id="edge1" class="edge">
<title>Parse&#45;&gt;Generate</title>
<path fill="none" stroke="#000000" d="M54.0694,-18C62.1428,-18 71.2011,-18 80.0364,-18"/>
<polygon fill="#000000" stroke="#000000" points="80.2336,-21.5001 90.2336,-18 80.2336,-14.5001 80.2336,-21.5001"/>
</g>
<!-- Optimize -->
<g id="node3" class="node">
<title>Optimize</title>
<path fill="none" stroke="#000000" d="M248.6636,-36C248.6636,-36 204.467,-36 204.467,-36 198.467,-36 192.467,-30 192.467,-24 192.467,-24 192.467,-12 192.467,-12 192.467,-6 198.467,0 204.467,0 204.467,0 248.6636,0 248.6636,0 254.6636,0 260.6636,-6 260.6636,-12 260.6636,-12 260.6636,-24 260.6636,-24 260.6636,-30 254.6636,-36 248.6636,-36"/>
<text text-anchor="middle" x="226.5653" y="-13.8" font-family="Times,serif" font-size="14.00" fill="#000000">Optimize</text>
</g>
<!-- Generate&#45;&gt;Optimize -->
<g id="edge2" class="edge">
<title>Generate&#45;&gt;Optimize</title>
<path fill="none" stroke="#000000" d="M156.5138,-18C164.649,-18 173.4846,-18 182.0529,-18"/>
<polygon fill="#000000" stroke="#000000" points="182.3068,-21.5001 192.3068,-18 182.3067,-14.5001 182.3068,-21.5001"/>
</g>
<!-- Render -->
<g id="node4" class="node">
<title>Render</title>
<path fill="none" stroke="#000000" d="M341.2556,-36C341.2556,-36 308.3996,-36 308.3996,-36 302.3996,-36 296.3996,-30 296.3996,-24 296.3996,-24 296.3996,-12 296.3996,-12 296.3996,-6 302.3996,0 308.3996,0 308.3996,0 341.2556,0 341.2556,0 347.2556,0 353.2556,-6 353.2556,-12 353.2556,-12 353.2556,-24 353.2556,-24 353.2556,-30 347.2556,-36 341.2556,-36"/>
<text text-anchor="middle" x="324.8276" y="-13.8" font-family="Times,serif" font-size="14.00" fill="#000000">Render</text>
</g>
<!-- Optimize&#45;&gt;Render -->
<g id="edge3" class="edge">
<title>Optimize&#45;&gt;Render</title>
<path fill="none" stroke="#000000" d="M260.6569,-18C268.9325,-18 277.8382,-18 286.3028,-18"/>
<polygon fill="#000000" stroke="#000000" points="286.337,-21.5001 296.337,-18 286.337,-14.5001 286.337,-21.5001"/>
</g>
</g>
</svg>